<svg width="72" height="72" viewBox="0 0 72 72" fill="none" xmlns="http://www.w3.org/2000/svg">
<g opacity="0.3">
<path d="M21 30V21C21 17.0218 22.5804 13.2064 25.3934 10.3934C28.2064 7.58035 32.0218 6 36 6C39.9782 6 43.7936 7.58035 46.6066 10.3934C49.4196 13.2064 51 17.0218 51 21V30M39 48C39 49.6569 37.6569 51 36 51C34.3431 51 33 49.6569 33 48C33 46.3431 34.3431 45 36 45C37.6569 45 39 46.3431 39 48ZM15 30H57C60.3137 30 63 32.6863 63 36V60C63 63.3137 60.3137 66 57 66H15C11.6863 66 9 63.3137 9 60V36C9 32.6863 11.6863 30 15 30Z" stroke="black" stroke-width="6" stroke-linecap="round" stroke-linejoin="round"/>
</g>
</svg>
