<svg width="133" height="28" viewBox="0 0 133 28" fill="none" xmlns="http://www.w3.org/2000/svg">
<path d="M0 13.2222L2.27614 23.3333H5.311L3.03486 13.2222H0Z" fill="black"/>
<path d="M6.06971 0L8.34586 10.1111H11.3807L9.10457 0H6.06971Z" fill="black"/>
<path d="M1.51743 0L6.82843 23.3333H9.86329L4.55229 0H1.51743Z" fill="black"/>
<path d="M27.0102 11.8533C26.8281 10.8993 26.3426 10.1319 25.5535 9.55111C24.7644 8.94963 23.8641 8.64889 22.8525 8.64889C21.8409 8.64889 21.0012 8.90815 20.3335 9.42667C19.6861 9.92444 19.3624 10.5881 19.3624 11.4178C19.3826 12.1644 19.7468 12.7556 20.4549 13.1911C21.1833 13.6059 22.1848 13.9689 23.4594 14.28C24.8352 14.5704 25.9581 14.9022 26.8281 15.2756C27.7184 15.6281 28.4164 16.1259 28.9222 16.7689C29.428 17.3911 29.6809 18.1896 29.6809 19.1644C29.6809 20.16 29.3875 21 28.8008 21.6844C28.2343 22.3689 27.4756 22.877 26.5246 23.2089C25.5737 23.5407 24.552 23.7067 23.4594 23.7067C22.2253 23.7067 21.0923 23.4785 20.0604 23.0222C19.0488 22.5659 18.2395 21.923 17.6325 21.0933C17.0255 20.2637 16.6917 19.2993 16.631 18.2L18.9375 18.0444C19.0387 18.7289 19.2815 19.3407 19.6659 19.88C20.0503 20.3985 20.5662 20.803 21.2137 21.0933C21.8813 21.3837 22.6299 21.5289 23.4594 21.5289C24.5318 21.5289 25.4422 21.3319 26.1908 20.9378C26.9596 20.523 27.3441 19.8904 27.3441 19.04C27.3441 18.48 27.1721 18.0341 26.8281 17.7022C26.5044 17.3704 26.0998 17.1215 25.6142 16.9556C25.1489 16.7689 24.5216 16.5822 23.7326 16.3956C23.4898 16.3333 23.247 16.2815 23.0042 16.24C21.7296 15.9289 20.6775 15.6074 19.848 15.2756C19.0387 14.923 18.371 14.4459 17.845 13.8444C17.3189 13.2222 17.0559 12.4444 17.0559 11.5111C17.0357 10.4948 17.2785 9.61333 17.7843 8.86667C18.2901 8.09926 18.9982 7.50815 19.9087 7.09333C20.8394 6.67852 21.9117 6.47111 23.1256 6.47111C24.7037 6.47111 26.0694 6.95852 27.2227 7.93333C28.3759 8.88741 29.084 10.1319 29.3471 11.6667L27.0102 11.8533Z" fill="black"/>
<path d="M34.6227 1.24444V10.6711L34.3193 10.2978C34.6025 9.01185 35.2196 8.05778 36.1705 7.43555C37.1417 6.79259 38.2747 6.47111 39.5696 6.47111C41.2286 6.47111 42.5437 7.04148 43.5149 8.18222C44.486 9.32296 44.9716 10.837 44.9716 12.7244V23.3333H42.7562V13.6267C42.7562 11.9881 42.4527 10.7541 41.8457 9.92444C41.2387 9.07407 40.3182 8.64889 39.084 8.64889C37.7082 8.64889 36.6156 9.09481 35.8063 9.98667C35.0173 10.8578 34.6227 12.0711 34.6227 13.6267V23.3333H32.4073V1.24444H34.6227Z" fill="black"/>
<path d="M50.7269 6.84444L50.7876 9.76889C51.1518 8.75259 51.7487 7.95407 52.5782 7.37333C53.4077 6.77185 54.3991 6.47111 55.5523 6.47111C56.7056 6.47111 57.6767 6.79259 58.4658 7.43555C59.2751 8.07852 59.8416 8.97037 60.1653 10.1111C60.5093 8.94963 61.1061 8.05778 61.9559 7.43555C62.8259 6.79259 63.8881 6.47111 65.1425 6.47111C66.1946 6.47111 67.0949 6.72 67.8435 7.21778C68.6124 7.71556 69.1991 8.44148 69.6037 9.39556C70.0084 10.3289 70.2107 11.4489 70.2107 12.7556V23.3333H67.9953V13.5022C67.9953 11.9259 67.7019 10.7022 67.1152 9.83111C66.5284 8.93926 65.7292 8.49333 64.7176 8.49333C63.8679 8.49333 63.1294 8.70074 62.5022 9.11556C61.875 9.53037 61.3894 10.1215 61.0454 10.8889C60.7015 11.6356 60.5295 12.517 60.5295 13.5333V23.3333H58.3141V13.4711C58.3141 11.9156 58.0207 10.7022 57.434 9.83111C56.8675 8.93926 56.0885 8.49333 55.0971 8.49333C54.2474 8.49333 53.5089 8.70074 52.8817 9.11556C52.2545 9.50963 51.7689 10.0904 51.4249 10.8578C51.081 11.6044 50.909 12.4756 50.909 13.4711V23.3333H48.6936V6.84444H50.7269Z" fill="black"/>
<path d="M74.5373 6.84444L79.6055 20.9067L84.4916 6.84444H86.8588L80.2732 25.4178C79.9494 26.3096 79.4942 26.963 78.9075 27.3778C78.341 27.7926 77.6025 28 76.692 28H74.7801V25.9778H76.5099C76.9753 25.9778 77.3395 25.8741 77.6025 25.6667C77.8857 25.4593 78.1285 25.0859 78.3308 24.5467L78.9075 23.0222H78.1184L72.1397 6.84444H74.5373Z" fill="black"/>
<path d="M88.0656 11.6978C88.3691 10.08 89.0975 8.80444 90.2507 7.87111C91.404 6.93778 92.8304 6.47111 94.5299 6.47111C96.5733 6.47111 98.1414 7.07259 99.2339 8.27556C100.347 9.45778 100.903 11.1585 100.903 13.3778V20.0978C100.903 20.5126 100.984 20.8237 101.146 21.0311C101.328 21.2178 101.591 21.3111 101.935 21.3111H102.572V23.3333H101.207C100.438 23.2711 99.8206 23.0326 99.3553 22.6178C98.89 22.203 98.6674 21.5185 98.6876 20.5644C98.283 21.477 97.6153 22.2341 96.6846 22.8356C95.7742 23.4163 94.7018 23.7067 93.4677 23.7067C91.8288 23.7067 90.4733 23.2815 89.401 22.4311C88.3286 21.5807 87.7925 20.4607 87.7925 19.0711C87.7925 18.0133 88.0353 17.163 88.5209 16.52C89.0064 15.877 89.664 15.3896 90.4935 15.0578C91.3433 14.7259 92.4257 14.4356 93.7408 14.1867L98.6573 13.1911C98.637 11.6563 98.283 10.5156 97.5951 9.76889C96.9274 9.02222 95.9057 8.64889 94.5299 8.64889C93.4373 8.64889 92.537 8.92889 91.8288 9.48889C91.1207 10.0489 90.6453 10.8474 90.4025 11.8844L88.0656 11.6978ZM90.099 19.0711C90.099 19.8593 90.4126 20.5022 91.0398 21C91.6872 21.477 92.6078 21.7052 93.8015 21.6844C94.7322 21.6637 95.5718 21.4252 96.3204 20.9689C97.069 20.5126 97.6558 19.8489 98.0807 18.9778C98.5055 18.1067 98.718 17.0593 98.718 15.8356V15.2133L94.712 15.96C94.5299 15.9807 94.3478 16.0119 94.1657 16.0533C93.235 16.24 92.4965 16.4267 91.9502 16.6133C91.404 16.7793 90.9589 17.0593 90.6149 17.4533C90.271 17.8267 90.099 18.3659 90.099 19.0711Z" fill="black"/>
<path d="M107.503 1.24444V16.0222L115.758 6.84444H118.823L112.329 13.8756L119.187 23.3333H116.456L110.811 15.4311L107.503 18.9778V23.3333H105.288V1.24444H107.503Z" fill="black"/>
<path d="M130.329 11.8533C130.147 10.8993 129.662 10.1319 128.873 9.55111C128.084 8.94963 127.183 8.64889 126.172 8.64889C125.16 8.64889 124.32 8.90815 123.653 9.42667C123.005 9.92444 122.681 10.5881 122.681 11.4178C122.702 12.1644 123.066 12.7556 123.774 13.1911C124.502 13.6059 125.504 13.9689 126.779 14.28C128.154 14.5704 129.277 14.9022 130.147 15.2756C131.037 15.6281 131.735 16.1259 132.241 16.7689C132.747 17.3911 133 18.1896 133 19.1644C133 20.16 132.707 21 132.12 21.6844C131.553 22.3689 130.795 22.877 129.844 23.2089C128.893 23.5407 127.871 23.7067 126.779 23.7067C125.544 23.7067 124.411 23.4785 123.38 23.0222C122.368 22.5659 121.559 21.923 120.952 21.0933C120.345 20.2637 120.011 19.2993 119.95 18.2L122.257 18.0444C122.358 18.7289 122.601 19.3407 122.985 19.88C123.369 20.3985 123.885 20.803 124.533 21.0933C125.2 21.3837 125.949 21.5289 126.779 21.5289C127.851 21.5289 128.761 21.3319 129.51 20.9378C130.279 20.523 130.663 19.8904 130.663 19.04C130.663 18.48 130.491 18.0341 130.147 17.7022C129.824 17.3704 129.419 17.1215 128.933 16.9556C128.468 16.7689 127.841 16.5822 127.052 16.3956C126.809 16.3333 126.566 16.2815 126.323 16.24C125.049 15.9289 123.997 15.6074 123.167 15.2756C122.358 14.923 121.69 14.4459 121.164 13.8444C120.638 13.2222 120.375 12.4444 120.375 11.5111C120.355 10.4948 120.598 9.61333 121.103 8.86667C121.609 8.09926 122.317 7.50815 123.228 7.09333C124.158 6.67852 125.231 6.47111 126.445 6.47111C128.023 6.47111 129.389 6.95852 130.542 7.93333C131.695 8.88741 132.403 10.1319 132.666 11.6667L130.329 11.8533Z" fill="black"/>
</svg>
