<svg width="14" height="10" viewBox="0 0 14 10" fill="none" xmlns="http://www.w3.org/2000/svg">
<path fill-rule="evenodd" clip-rule="evenodd" d="M13.707 0.293031C13.8945 0.480558 13.9998 0.734866 13.9998 1.00003C13.9998 1.26519 13.8945 1.5195 13.707 1.70703L5.70701 9.70703C5.51948 9.8945 5.26517 9.99982 5.00001 9.99982C4.73485 9.99982 4.48054 9.8945 4.29301 9.70703L0.29301 5.70703C0.110852 5.51843 0.010058 5.26583 0.0123364 5.00363C0.0146148 4.74143 0.119784 4.49062 0.305192 4.30521C0.4906 4.1198 0.741412 4.01464 1.00361 4.01236C1.26581 4.01008 1.51841 4.11087 1.70701 4.29303L5.00001 7.58603L12.293 0.293031C12.4805 0.10556 12.7348 0.000244141 13 0.000244141C13.2652 0.000244141 13.5195 0.10556 13.707 0.293031Z" fill="#22C348"/>
</svg>
